<svg width="51" height="51" viewBox="0 0 51 51" fill="none" xmlns="http://www.w3.org/2000/svg">
<path fill-rule="evenodd" clip-rule="evenodd" d="M9.14812 24.7031L15.4275 30.9825C15.6624 31.2014 15.8508 31.4653 15.9814 31.7585C16.1121 32.0518 16.1823 32.3683 16.188 32.6893C16.1937 33.0103 16.1346 33.3292 16.0144 33.6268C15.8942 33.9245 15.7152 34.1949 15.4882 34.4219C15.2612 34.6489 14.9908 34.8279 14.6931 34.9481C14.3954 35.0684 14.0766 35.1274 13.7556 35.1218C13.4346 35.1161 13.118 35.0458 12.8248 34.9152C12.5315 34.7845 12.2676 34.5961 12.0487 34.3612L1.68937 24.0019L0 22.3125L1.68937 20.6231L12.0487 10.2637C12.5019 9.84147 13.1013 9.61158 13.7207 9.6225C14.34 9.63343 14.9309 9.88433 15.3689 10.3223C15.8069 10.7603 16.0578 11.3512 16.0687 11.9706C16.0797 12.5899 15.8498 13.1893 15.4275 13.6425L9.14812 19.9219H40.6406C43.3881 19.9219 46.023 21.0133 47.9658 22.9561C49.9086 24.8988 51 27.5338 51 30.2812C51 33.0287 49.9086 35.6637 47.9658 37.6064C46.023 39.5492 43.3881 40.6406 40.6406 40.6406H34.2656C33.6316 40.6406 33.0235 40.3888 32.5752 39.9404C32.1269 39.4921 31.875 38.884 31.875 38.25C31.875 37.616 32.1269 37.0079 32.5752 36.5596C33.0235 36.1112 33.6316 35.8594 34.2656 35.8594H40.6406C42.12 35.8594 43.5389 35.2717 44.585 34.2256C45.6311 33.1795 46.2188 31.7607 46.2188 30.2812C46.2188 28.8018 45.6311 27.383 44.585 26.3369C43.5389 25.2908 42.12 24.7031 40.6406 24.7031H9.14812Z" fill="black"/>
</svg>
