<svg width="48" height="57" viewBox="0 0 48 57" fill="none" xmlns="http://www.w3.org/2000/svg">
<path d="M18.9167 2L18.9167 26.1667L26.1667 21.3333L33.4167 26.1667L33.4167 2M8.04167 43.0833C6.43932 43.0833 4.9026 43.7199 3.76956 44.8529C2.63653 45.9859 2 47.5227 2 49.125M2 49.125C2 50.7273 2.63653 52.2641 3.76956 53.3971C4.9026 54.5301 6.43932 55.1667 8.04167 55.1667L47.9167 55.1667M2 49.125L2 8.04167C2 6.43932 2.63653 4.9026 3.76956 3.76956C4.9026 2.63653 6.43932 2 8.04167 2L45.5 2L45.5 43.1003L8.02233 43.1003M44.2917 43.0833C42.6893 43.0833 41.1526 43.7199 40.0196 44.8529C38.8865 45.9859 38.25 47.5227 38.25 49.125C38.25 50.7273 38.8865 52.2641 40.0196 53.3971C41.1526 54.5301 42.6893 55.1667 44.2917 55.1667" stroke="black" stroke-width="3"/>
</svg>
