<svg width="64" height="65" viewBox="0 0 64 65" fill="none" xmlns="http://www.w3.org/2000/svg">
<path d="M16.1782 2.00002L47.8218 2.00002C48.3882 1.9983 48.9493 2.1247 49.4728 2.37195C49.9963 2.6192 50.472 2.98241 50.8724 3.44071C51.2728 3.89901 51.59 4.44335 51.8059 5.04243C52.0218 5.64151 52.1321 6.28351 52.1304 6.93152L52.1304 58.0703C52.1319 58.7182 52.0215 59.36 51.8055 59.9589C51.5895 60.5577 51.2722 61.1018 50.8718 61.5599C50.4714 62.018 49.9958 62.3811 49.4724 62.6282C48.949 62.8754 48.3881 63.0017 47.8218 63L16.1782 63C15.6119 63.0017 15.051 62.8754 14.5276 62.6282C14.0042 62.3811 13.5286 62.018 13.1282 61.5599C12.7278 61.1018 12.4105 60.5577 12.1945 59.9589C11.9785 59.36 11.8681 58.7182 11.8696 58.0703L11.8696 6.93152C11.8679 6.28367 11.9781 5.64182 12.1939 5.04286C12.4097 4.4439 12.7268 3.89964 13.1271 3.44137C13.5273 2.9831 14.0028 2.61984 14.5261 2.37249C15.0494 2.12513 15.6103 1.99855 16.1765 2.00002M17.9733 19.3011L46.6802 19.3011M17.9733 25.6575L46.6802 25.6575M17.9733 32.0176L46.6802 32.0176M17.9733 38.374L46.6802 38.374M17.9733 12.9428L29.4817 12.9428M17.9733 44.7323L29.4817 44.7323M17.9733 51.0905L46.6802 51.0905M11.868 57.985L52.132 57.985M25.285 57.985L25.285 62.9981M38.7166 57.985L38.7166 62.9981M11.842 56.3189L2.14982 14.9188C2.00159 14.2934 1.96285 13.6407 2.03584 12.9982C2.10882 12.3557 2.29208 11.736 2.57509 11.1748C2.85809 10.6136 3.23526 10.1219 3.6849 9.72799C4.13454 9.33411 4.6478 9.0458 5.19516 8.87963L11.8437 6.84061M52.158 56.3189L61.8502 14.9188C61.9984 14.2934 62.0371 13.6407 61.9642 12.9982C61.8912 12.3557 61.7079 11.736 61.4249 11.1748C61.1419 10.6136 60.7647 10.1219 60.3151 9.72799C59.8655 9.33411 59.3522 9.0458 58.8048 8.87963L52.1563 6.84061" stroke="black" stroke-width="3" stroke-linecap="round" stroke-linejoin="round"/>
</svg>
