<svg width="63" height="64" viewBox="0 0 63 64" fill="none" xmlns="http://www.w3.org/2000/svg">
<path d="M61 54.5L62.5 54.5L61 54.5ZM46.25 39.5L46.25 38L46.25 39.5ZM16.75 39.5L16.75 38L16.75 39.5ZM61 54.5L62.5 54.5C62.5 50.132 60.794 45.9379 57.7494 42.8417L56.6798 43.8934L55.6103 44.9451C58.098 47.475 59.5 50.9115 59.5 54.5L61 54.5ZM56.6798 43.8934L57.7494 42.8417C54.7039 39.7446 50.568 38 46.25 38L46.25 39.5L46.25 41C49.7559 41 53.1234 42.4161 55.6103 44.9451L56.6798 43.8934ZM46.25 39.5L46.25 38L16.75 38L16.75 39.5L16.75 41L46.25 41L46.25 39.5ZM16.75 39.5L16.75 38C12.432 38 8.29609 39.7446 5.25064 42.8417L6.32018 43.8934L7.38971 44.9451C9.87659 42.4161 13.2441 41 16.75 41L16.75 39.5ZM6.32018 43.8934L5.25064 42.8417C2.20603 45.9379 0.5 50.132 0.5 54.5L2 54.5L3.5 54.5C3.5 50.9115 4.902 47.475 7.38971 44.9451L6.32018 43.8934ZM2 54.5L0.5 54.5C0.5 56.8789 1.42903 59.1653 3.09055 60.855L4.16009 59.8033L5.22962 58.7516C4.12499 57.6282 3.5 56.0994 3.5 54.5L2 54.5ZM4.16009 59.8033L3.09055 60.855C4.75292 62.5456 7.01299 63.5 9.375 63.5L9.375 62L9.375 60.5C7.82507 60.5 6.33342 59.8741 5.22962 58.7516L4.16009 59.8033ZM9.375 62L9.375 63.5L53.625 63.5L53.625 62L53.625 60.5L9.375 60.5L9.375 62ZM53.625 62L53.625 63.5C55.987 63.5 58.2471 62.5456 59.9094 60.855L58.8399 59.8033L57.7704 58.7516C56.6666 59.8741 55.1749 60.5 53.625 60.5L53.625 62ZM58.8399 59.8033L59.9094 60.855C61.571 59.1653 62.5 56.8789 62.5 54.5L61 54.5L59.5 54.5C59.5 56.0994 58.875 57.6282 57.7704 58.7516L58.8399 59.8033ZM20.4375 13.25L18.9375 13.25C18.9375 20.2678 24.5383 26 31.5 26L31.5 24.5L31.5 23C26.2424 23 21.9375 18.6586 21.9375 13.25L20.4375 13.25ZM31.5 24.5L31.5 26C38.4617 26 44.0625 20.2678 44.0625 13.25L42.5625 13.25L41.0625 13.25C41.0625 18.6586 36.7576 23 31.5 23L31.5 24.5ZM42.5625 13.25L44.0625 13.25C44.0625 6.23224 38.4617 0.5 31.5 0.5L31.5 2L31.5 3.5C36.7576 3.5 41.0625 7.84136 41.0625 13.25L42.5625 13.25ZM31.5 2L31.5 0.5C24.5383 0.5 18.9375 6.23224 18.9375 13.25L20.4375 13.25L21.9375 13.25C21.9375 7.84136 26.2424 3.5 31.5 3.5L31.5 2Z" fill="black"/>
</svg>
