<svg width="197" height="197" viewBox="0 0 197 197" fill="none" xmlns="http://www.w3.org/2000/svg">
<path d="M183.86 164.68L103.829 26.1641C102.636 24.1056 100.578 23.0859 98.5 23.0859C96.4223 23.0859 94.3445 24.1056 93.171 26.1641L13.1397 164.68C10.7734 168.797 13.7361 173.914 18.4687 173.914H178.531C183.264 173.914 186.227 168.797 183.86 164.68ZM92.3437 80.0312C92.3437 79.1848 93.0363 78.4922 93.8828 78.4922H103.117C103.964 78.4922 104.656 79.1848 104.656 80.0312V115.43C104.656 116.276 103.964 116.969 103.117 116.969H93.8828C93.0363 116.969 92.3437 116.276 92.3437 115.43V80.0312ZM98.5 147.75C96.0835 147.701 93.7827 146.706 92.0911 144.98C90.3996 143.253 89.4522 140.933 89.4522 138.516C89.4522 136.099 90.3996 133.778 92.0911 132.052C93.7827 130.325 96.0835 129.331 98.5 129.281C100.916 129.331 103.217 130.325 104.909 132.052C106.6 133.778 107.548 136.099 107.548 138.516C107.548 140.933 106.6 143.253 104.909 144.98C103.217 146.706 100.916 147.701 98.5 147.75Z" fill="black"/>
</svg>
